<svg width="800" height="800" viewBox="0 0 800 800" fill="none" xmlns="http://www.w3.org/2000/svg">
<path d="M623.666 650C596 691.333 566.666 731.667 522 732.333C477.333 733.333 463 706 412.333 706C361.333 706 345.666 731.667 303.332 733.333C259.665 735 226.666 689.333 198.666 649C141.666 566.667 97.9988 415 156.665 313C185.665 262.333 237.666 230.333 293.999 229.333C336.667 228.667 377.333 258.333 403.666 258.333C429.666 258.333 479 222.667 530.667 228C552.333 229 613 236.667 652 294C649 296 579.666 336.667 580.333 421C581.333 521.667 668.667 555.333 669.667 555.667C668.667 558 655.666 603.667 623.666 650ZM433.333 116.667C457.666 89.0001 498 68.0001 531.333 66.6667C535.666 105.667 520 145 496.666 173C473.666 201.333 435.666 223.333 398.333 220.333C393.333 182 412 142 433.333 116.667Z" fill="white"/>
</svg>
