<svg width="26" height="26" viewBox="0 0 26 26" fill="none" xmlns="http://www.w3.org/2000/svg">
<g clip-path="url(#clip0_11_24)">
<path d="M24.5561 10.8266L14.3588 10.8261C13.9085 10.8261 13.5435 11.1911 13.5435 11.6414V14.8989C13.5435 15.3491 13.9085 15.7142 14.3588 15.7142H20.1012C19.4724 17.346 18.2988 18.7127 16.8014 19.5811L19.25 23.8198C23.1779 21.5481 25.5 17.5624 25.5 13.1005C25.5 12.4652 25.4532 12.0111 25.3595 11.4997C25.2884 11.1112 24.9511 10.8266 24.5561 10.8266Z" fill="#167EE6"/>
<path d="M13 20.6087C10.1897 20.6087 7.73642 19.0732 6.4188 16.8011L2.18022 19.2442C4.3372 22.9826 8.37793 25.5 13 25.5C15.2674 25.5 17.4069 24.8895 19.25 23.8256V23.8198L16.8014 19.581C15.6814 20.2306 14.3853 20.6087 13 20.6087Z" fill="#12B347"/>
<path d="M19.25 23.8256V23.8198L16.8014 19.581C15.6814 20.2306 14.3854 20.6087 13 20.6087V25.5C15.2674 25.5 17.407 24.8895 19.25 23.8256Z" fill="#0F993E"/>
<path d="M5.39131 13C5.39131 11.6148 5.76934 10.3189 6.4188 9.19888L2.18022 6.75581C1.11045 8.59307 0.5 10.7268 0.5 13C0.5 15.2732 1.11045 17.4069 2.18022 19.2442L6.4188 16.8011C5.76934 15.6812 5.39131 14.3852 5.39131 13Z" fill="#FFD500"/>
<path d="M13 5.39131C14.8326 5.39131 16.5159 6.04248 17.8307 7.12564C18.155 7.39282 18.6265 7.37354 18.9236 7.07642L21.2317 4.76831C21.5688 4.4312 21.5448 3.87939 21.1847 3.56699C18.9818 1.65591 16.1156 0.5 13 0.5C8.37793 0.5 4.3372 3.01743 2.18022 6.75581L6.4188 9.19888C7.73642 6.92676 10.1897 5.39131 13 5.39131Z" fill="#FF4B26"/>
<path d="M17.8307 7.12563C18.155 7.39282 18.6265 7.37354 18.9236 7.07642L21.2317 4.76831C21.5688 4.4312 21.5447 3.87939 21.1847 3.56699C18.9818 1.65586 16.1156 0.5 13 0.5V5.39131C14.8325 5.39131 16.5159 6.04248 17.8307 7.12563Z" fill="#D93F21"/>
</g>
<defs>
<clipPath id="clip0_11_24">
<rect width="25" height="25" fill="white" transform="translate(0.5 0.5)"/>
</clipPath>
</defs>
</svg>
